<svg width="186" height="196" viewBox="0 0 186 196" fill="none" xmlns="http://www.w3.org/2000/svg">
<path d="M128.5 84.5C128.5 84.587 128.5 84.6741 128.5 88.4557C128.5 92.2374 128.5 99.7111 128.5 108.5" stroke="black" stroke-width="4.5" stroke-linecap="round"/>
<path d="M117.5 90.5C117.626 90.5 118.565 90.715 122.25 92.12C129.783 95.4681 135.125 98.0011 136.526 98.9795C137.45 99.6486 138.806 100.668 141.5 102.5" stroke="black" stroke-width="4.5" stroke-linecap="round"/>
<path d="M136.5 89.5C136.457 89.5 135.341 90.1409 133.306 91.4108C131.613 92.6373 128.876 94.966 124.83 98.7294C122.746 100.78 120.598 103.116 117.5 106.5" stroke="black" stroke-width="4.5" stroke-linecap="round"/>
<path d="M173.146 43.8223C173.087 43.9249 173.028 44.0275 170.454 48.4857C167.88 52.9439 162.793 61.7547 157.382 72.4459" stroke="black" stroke-width="4.5" stroke-linecap="round"/>
<path d="M155.869 42.7676C156.023 42.8567 157.022 43.7853 160.544 48.1181C167.405 57.5592 172.158 64.4491 173.182 66.6418C173.841 68.1171 174.781 70.3285 176.785 74.4837" stroke="black" stroke-width="4.5" stroke-linecap="round"/>
<path d="M180.368 55.2948C180.316 55.2645 178.492 55.2476 175.098 55.3404C172.155 55.6235 167.155 56.5007 159.539 58.1867C155.537 59.1905 151.257 60.4952 145.074 62.3955" stroke="black" stroke-width="4.5" stroke-linecap="round"/>
<path d="M140.5 13.0273C139.177 13.0513 135.489 13.5507 129.28 16.5631C124.241 19.0083 115.611 23.7845 109.341 27.6324C99.1513 33.8853 95.0778 38.0947 93.251 39.9781C90.6399 42.6701 87.0624 46.6451 82.2873 52.8748C79.4161 56.6206 76.0894 61.8763 73.6044 66.033C69.425 73.0239 67.5582 78.424 66.3584 83.0303C65.7323 85.4337 65.4392 88.0554 65.173 91.9055C64.9068 95.7555 64.7705 100.776 65.3997 106.45C66.0288 112.124 67.4277 118.299 69.2143 124.169C71.0009 130.038 73.1329 135.415 75.2147 139.964C78.9833 148.199 82.3588 153.228 84.4293 156.017C86.2315 158.445 88.7292 161.368 92.7928 165.934C98.5555 172.408 103.766 176.204 105.38 177.627C108.201 180.115 114.97 183.38 118.977 185.227C119.837 185.623 121.004 185.892 121.405 186.279C124.123 188.908 110.522 193.004 106.365 193.943C105.323 194.178 103.876 194.348 99.5249 194.453C95.174 194.558 87.9496 194.527 81.6919 193.93C75.4341 193.334 70.362 192.175 65.8314 190.9C61.3007 189.624 57.4653 188.268 54.1548 186.834C50.8443 185.4 48.175 183.928 43.7011 181.193C39.2271 178.458 33.0294 174.504 29.3033 171.951C24.3613 168.565 22.6975 166.361 19.6103 161.653C17.1675 157.927 13.2267 151.317 10.4272 145.333C7.62776 139.348 6.16077 134.146 4.84134 126.136C3.52191 118.126 2.3945 107.466 1.82537 100.02C1.25625 92.5737 1.27958 88.6651 3.16603 81.5923C5.05247 74.5195 8.80131 64.4009 12.3758 56.2622C15.9502 48.1236 19.2367 42.2715 21.798 38.1142C25.8574 31.5252 28.3922 28.8406 29.492 27.8983C30.6658 26.8926 35.9112 22.631 44.0853 15.9121C50.1187 10.9528 55.3025 8.67844 58.7185 6.69321C61.1845 5.26007 65.9039 4.26799 76.437 2.86257C83.4196 1.9309 93.8581 1.66561 100.192 1.51804C108.472 1.32515 113.693 2.70369 119.781 4.46105C128.939 8.44891 132.48 10.9431 134.098 12.7136C134.645 13.272 135.411 13.9809 136.942 14.8041" stroke="black" stroke-width="4.5" stroke-linecap="round"/>
</svg>
