<svg width="229" height="254" viewBox="0 0 229 254" fill="none" xmlns="http://www.w3.org/2000/svg">
<path d="M92.3121 84.2145C90.8669 84.7029 86.1983 87.419 79.3419 96.6642C73.4463 104.614 71.3977 109.965 69.1805 117.976C65.4718 131.376 68.9351 154.551 70.9752 161.263C73.5334 169.68 79.655 176.104 84.5083 181.581C88.5991 186.199 95.7034 188.342 105.97 191.234C117.603 194.51 134.689 191.837 139.953 189.944C145.753 187.857 150.809 184.562 156.064 181.285C163.243 176.809 166.923 171.476 170.506 165.495C176.67 155.205 176.697 147.815 176.665 134.647C176.638 123.07 170.159 115.224 164.217 106.095C160.427 100.273 153.277 93.5706 147.609 87.743C141.985 81.9605 134.914 80.1908 126.861 78.9124C112.473 76.6282 106.956 81.015 101.62 82.7253C100.274 83.1103 98.9479 83.4298 97.6158 83.7062C96.2837 83.9827 94.9854 84.2065 93.6477 84.4371" stroke="#F3F3F3" stroke-width="4.5" stroke-linecap="round"/>
<path d="M90.2466 1.5C90.3098 3.77517 93.5883 17.8741 96.8011 31.8453C97.4753 35.5107 97.9766 38.3495 98.4031 41.2835C98.5853 42.7569 98.6981 44.1988 99.4665 48.2003" stroke="#F3F3F3" stroke-width="4.5" stroke-linecap="round"/>
<path d="M1.5 91.8828C3.6896 91.8828 10.6369 92.7951 17.1777 95.4438C21.3995 97.7404 28.4365 101.272 36.2534 104.96C39.4253 106.48 40.9833 107.287 45.7257 110.022" stroke="#F3F3F3" stroke-width="4.5" stroke-linecap="round"/>
<path d="M12.5266 209.231C14.3302 208.695 19.9621 206.311 25.3913 202.377C30.8783 198.402 35.3822 194.485 40.8495 192.024C42.2042 191.471 43.523 190.92 44.8422 190.436C46.1614 189.953 47.441 189.555 50.8973 188.57" stroke="#F3F3F3" stroke-width="4.5" stroke-linecap="round"/>
<path d="M208.879 43.7441C208.674 43.8432 201.59 51.9816 190.149 65.127C185.687 70.1849 183.953 71.9685 182.642 73.422C181.331 74.8755 180.496 75.9449 178.858 78.0252" stroke="#F3F3F3" stroke-width="4.5" stroke-linecap="round"/>
<path d="M186.665 173.127C188.731 173.467 208.939 181.964 220.479 188.568C221.679 189.451 222.919 190.343 224.103 191.221C225.287 192.099 226.377 192.936 227.5 193.798" stroke="#F3F3F3" stroke-width="4.5" stroke-linecap="round"/>
<path d="M130.439 208.305V252.473" stroke="#F3F3F3" stroke-width="4.5" stroke-linecap="round"/>
</svg>
